<?xml version="1.0" encoding="UTF-8" standalone="no"?>
<svg
   xmlns:dc="http://purl.org/dc/elements/1.1/"
   xmlns:cc="http://creativecommons.org/ns#"
   xmlns:rdf="http://www.w3.org/1999/02/22-rdf-syntax-ns#"
   xmlns:svg="http://www.w3.org/2000/svg"
   xmlns="http://www.w3.org/2000/svg"
   xmlns:sodipodi="http://sodipodi.sourceforge.net/DTD/sodipodi-0.dtd"
   xmlns:inkscape="http://www.inkscape.org/namespaces/inkscape"
   version="1.1"
   id="Layer_1"
   x="0px"
   y="0px"
   viewBox="0 0 496 496"
   style="enable-background:new 0 0 496 496;"
   xml:space="preserve"
   sodipodi:docname="mktype-icon.svg"
   inkscape:version="1.0.1 (c497b03c, 2020-09-10)"><metadata
   id="metadata908"><rdf:RDF><cc:Work
       rdf:about=""><dc:format>image/svg+xml</dc:format><dc:type
         rdf:resource="http://purl.org/dc/dcmitype/StillImage" /></cc:Work></rdf:RDF></metadata><defs
   id="defs906">
	
	
	
	
	
	
	
	
	
	
	
	
	
	
</defs><sodipodi:namedview
   pagecolor="#ffffff"
   bordercolor="#666666"
   borderopacity="1"
   objecttolerance="10"
   gridtolerance="10"
   guidetolerance="10"
   inkscape:pageopacity="0"
   inkscape:pageshadow="2"
   inkscape:window-width="1275"
   inkscape:window-height="653"
   id="namedview904"
   showgrid="false"
   showguides="true"
   inkscape:guide-bbox="true"
   inkscape:zoom="0.64354697"
   inkscape:cx="478.97594"
   inkscape:cy="312.27514"
   inkscape:window-x="0"
   inkscape:window-y="23"
   inkscape:window-maximized="0"
   inkscape:current-layer="Layer_1"><sodipodi:guide
     position="330.94737,202.10526"
     orientation="1,0"
     id="guide980" /><sodipodi:guide
     position="162.52632,228.21053"
     orientation="1,0"
     id="guide982" /></sodipodi:namedview>
<path
   style="fill:#999999"
   d="M496,455.6c0,17.6-14.4,32-32,32H32c-17.6,0-32-14.4-32-32v-192c0-17.6,14.4-32,32-32h432  c17.6,0,32,14.4,32,32V455.6z"
   id="path833"
   inkscape:export-xdpi="90"
   inkscape:export-ydpi="90" />
<path
   style="fill:#808080"
   d="M0,263.6c0-17.6,14.4-32,32-32h432c17.6,0,32,13.6,32,31.2v192c0,17.6-14.4,32-32,32"
   id="path835"
   inkscape:export-xdpi="90"
   inkscape:export-ydpi="90" />
<path
   style="fill:#aaeeff"
   d="m 88,308.4 c 0,6.4 -4.8,11.2 -11.2,11.2 H 43.2 C 36.8,319.6 32,314.8 32,308.4 v -32.8 c 0,-7.2 4.8,-12 11.2,-12 H 76 c 6.4,0 11.2,4.8 11.2,11.2 v 33.6 z"
   id="path837"
   inkscape:export-xdpi="90"
   inkscape:export-ydpi="90" /><path
   style="fill:#aaeeff"
   d="m 162.88,308 c 0,6.4 -4.8,11.2 -11.2,11.2 h -32.8 c -6.4,0 -11.2,-4.8 -11.2,-11.2 v -32.8 c 0,-6.4 4.8,-11.2 11.2,-11.2 h 32.8 c 6.4,0 11.2,4.8 11.2,11.2 z"
   id="path839"
   inkscape:export-xdpi="90"
   inkscape:export-ydpi="90" /><path
   style="fill:#aaeeff"
   d="m 238.16,308 c 0,6.4 -4.8,11.2 -11.2,11.2 h -32.8 c -6.4,0 -11.2,-4.8 -11.2,-11.2 v -32.8 c 0,-6.4 4.8,-11.2 11.2,-11.2 h 32.8 c 6.4,0 11.2,4.8 11.2,11.2 z"
   id="path841"
   inkscape:export-xdpi="90"
   inkscape:export-ydpi="90" /><path
   style="fill:#aaeeff"
   d="m 313.44,308 c 0,6.4 -4.8,11.2 -11.2,11.2 h -32.8 c -6.4,0 -11.2,-4.8 -11.2,-11.2 v -32.8 c 0,-6.4 4.8,-11.2 11.2,-11.2 h 32.8 c 6.4,0 11.2,4.8 11.2,11.2 z"
   id="path843"
   inkscape:export-xdpi="90"
   inkscape:export-ydpi="90" /><path
   style="fill:#ffccaa"
   d="m 388.72,308 c 0,6.4 -4.8,11.2 -11.2,11.2 h -32.8 c -6.4,0 -11.2,-4.8 -11.2,-11.2 v -32.8 c 0,-6.4 4.8,-11.2 11.2,-11.2 h 32.8 c 6.4,0 11.2,4.8 11.2,11.2 z"
   id="path845"
   inkscape:export-xdpi="90"
   inkscape:export-ydpi="90" /><path
   style="fill:#ffeeaa"
   d="m 464,308 c 0,6.4 -4.8,11.2 -11.2,11.2 H 420 c -6.4,0 -11.2,-4.8 -11.2,-11.2 v -32.8 c 0,-6.4 4.8,-11.2 11.2,-11.2 h 32.8 c 6.4,0 11.2,4.8 11.2,11.2 z"
   id="path847"
   inkscape:export-xdpi="90"
   inkscape:export-ydpi="90" />
<path
   style="fill:#BCBCBC;"
   d="M279.2,223.6c0,5.6-4,8-9.6,8H220c-5.6,0-9.6-2.4-9.6-8l0,0c0-5.6,4-8,9.6-8h49.6  C274.4,215.6,279.2,218,279.2,223.6L279.2,223.6z"
   id="path867"
   inkscape:export-xdpi="90"
   inkscape:export-ydpi="90" />
<path
   style="fill:#4C5254;"
   d="M256,215.6h-24v-55.2c0-13.6-9.6-25.6-23.2-25.6c-13.6,0-23.2,8.8-23.2,24.8h-24  c0-24,20.8-48,47.2-48c27.2,0,47.2,22.4,47.2,48.8V215.6z"
   id="path869"
   inkscape:export-xdpi="90"
   inkscape:export-ydpi="90" />
<path
   style="fill:#2F423F;"
   d="M136.8,208.4c-27.2,0-48.8-21.6-48.8-48.8V20.4c0-6.4,5.6-12,12-12s12,4.8,12,12v139.2  c0,13.6,11.2,24.8,24.8,24.8s24.8-11.2,24.8-24.8c0-6.4,4.8-12,12-12s12,5.6,12,12C184.8,186.8,163.2,208.4,136.8,208.4z"
   id="path871"
   inkscape:export-xdpi="90"
   inkscape:export-ydpi="90" />
<g
   id="g873">
</g>
<g
   id="g875">
</g>
<g
   id="g877">
</g>
<g
   id="g879">
</g>
<g
   id="g881">
</g>
<g
   id="g883">
</g>
<g
   id="g885">
</g>
<g
   id="g887">
</g>
<g
   id="g889">
</g>
<g
   id="g891">
</g>
<g
   id="g893">
</g>
<g
   id="g895">
</g>
<g
   id="g897">
</g>
<g
   id="g899">
</g>
<g
   id="g901">
</g>
<path
   style="fill:#aaeeff"
   d="m 88,444.49473 c 0,6.39999 -4.8,11.19999 -11.2,11.19999 H 43.2 C 36.8,455.69473 32,450.89474 32,444.49473 v -32.80001 c 0,-7.19999 4.8,-12 11.2,-12 H 76 c 6.4,0 11.2,4.80001 11.2,11.2 v 33.60001 z"
   id="path859"
   inkscape:export-xdpi="90"
   inkscape:export-ydpi="90" /><path
   style="fill:#ffccaa;stroke-width:0.668851"
   d="m 311.36639,444.09473 c 0,6.4 -2.14734,11.2 -5.01045,11.2 H 191.1157 c -2.8631,0 -5.01044,-4.8 -5.01044,-11.2 v -32.8 c 0,-6.4 2.14734,-11.2 5.01044,-11.2 h 114.88235 c 2.86312,0 5.01045,4.8 5.01045,11.2 v 32.8 z"
   id="path861"
   inkscape:export-xdpi="90"
   inkscape:export-ydpi="90" /><path
   style="fill:#ffeeaa"
   d="m 464,444.09473 c 0,6.4 -4.8,11.2 -11.2,11.2 H 420 c -6.4,0 -11.2,-4.8 -11.2,-11.2 v -32.8 c 0,-6.4 4.8,-11.2 11.2,-11.2 h 32.8 c 6.4,0 11.2,4.8 11.2,11.2 z"
   id="path863"
   inkscape:export-xdpi="90"
   inkscape:export-ydpi="90" /><path
   style="fill:#aaeeff"
   d="m 162.52632,444.09473 c 0,6.4 -4.8,11.2 -11.2,11.2 h -32.8 c -6.4,0 -11.2,-4.8 -11.2,-11.2 v -32.8 c 0,-6.4 4.8,-11.2 11.2,-11.2 h 32.8 c 6.4,0 11.2,4.8 11.2,11.2 z"
   id="path851-7"
   inkscape:export-xdpi="90"
   inkscape:export-ydpi="90" /><path
   style="fill:#ffeeaa"
   d="m 387.17894,444.09473 c 0,6.4 -4.8,11.2 -11.2,11.2 h -32.8 c -6.4,0 -11.2,-4.8 -11.2,-11.2 v -32.8 c 0,-6.39999 4.8,-11.2 11.2,-11.2 h 32.8 c 6.4,0 11.2,4.80001 11.2,11.2 z"
   id="path863-3"
   inkscape:export-xdpi="90"
   inkscape:export-ydpi="90" /><path
   style="fill:#aaeeff;fill-opacity:1"
   d="m 88,376.44736 c 0,6.4 -4.8,11.2 -11.2,11.2 H 43.2 c -6.4,0 -11.2,-4.8 -11.2,-11.2 v -32.8 c 0,-7.2 4.8,-12 11.2,-12 H 76 c 6.4,0 11.2,4.8 11.2,11.2 v 33.6 z"
   id="path849"
   inkscape:export-xdpi="90"
   inkscape:export-ydpi="90" /><path
   style="fill:#aaeeff;fill-opacity:1"
   d="m 162.69263,376.04736 c 0,6.4 -4.8,11.2 -11.2,11.2 h -32.8 c -6.4,0 -11.2,-4.8 -11.2,-11.2 v -32.8 c 0,-6.4 4.8,-11.2 11.2,-11.2 h 32.8 c 6.4,0 11.2,4.8 11.2,11.2 z"
   id="path851"
   inkscape:export-xdpi="90"
   inkscape:export-ydpi="90" /><path
   style="fill:#aaeeff;fill-opacity:1"
   d="m 237.78526,376.04736 c 0,6.4 -4.8,11.2 -11.2,11.2 h -32.8 c -6.4,0 -11.2,-4.8 -11.2,-11.2 v -32.8 c 0,-6.4 4.8,-11.2 11.2,-11.2 h 32.8 c 6.4,0 11.2,4.8 11.2,11.2 z"
   id="path853"
   inkscape:export-xdpi="90"
   inkscape:export-ydpi="90" /><path
   style="fill:#ffccaa;fill-opacity:1"
   d="m 312.8779,376.04736 c 0,6.4 -4.8,11.2 -11.2,11.2 h -32.8 c -6.4,0 -11.2,-4.8 -11.2,-11.2 v -32.8 c 0,-6.4 4.8,-11.2 11.2,-11.2 h 32.8 c 6.4,0 11.2,4.8 11.2,11.2 z"
   id="path855"
   inkscape:export-xdpi="90"
   inkscape:export-ydpi="90" /><path
   style="fill:#ffeeaa;fill-opacity:1"
   d="m 463.06315,376.04736 c 0,6.4 -4.79999,11.2 -11.2,11.2 h -32.8 c -6.4,0 -11.2,-4.8 -11.2,-11.2 v -32.8 c 0,-6.4 4.8,-11.2 11.2,-11.2 h 32.8 c 6.40001,0 11.2,4.8 11.2,11.2 z"
   id="path863-0"
   inkscape:export-xdpi="90"
   inkscape:export-ydpi="90" /><path
   style="fill:#ffccaa;fill-opacity:1"
   d="m 387.9705,376.04736 c 0,6.4 -4.8,11.2 -11.19999,11.2 H 343.9705 c -6.39999,0 -11.19999,-4.8 -11.19999,-11.2 v -32.8 c 0,-6.4 4.8,-11.2 11.19999,-11.2 h 32.80001 c 6.39999,0 11.19999,4.8 11.19999,11.2 z"
   id="path863-3-2"
   inkscape:export-xdpi="90"
   inkscape:export-ydpi="90" /><rect
   style="fill:#4c5254;fill-opacity:1;stroke-width:7.78972"
   id="rect1032"
   width="22.736841"
   height="140.63158"
   x="376.66162"
   y="57.701843"
   ry="13.819288"
   inkscape:export-xdpi="90"
   inkscape:export-ydpi="90" /><rect
   style="fill:#4c5254;fill-opacity:1;stroke-width:7.78972"
   id="rect1032-7"
   width="22.736841"
   height="140.63158"
   x="444.7388"
   y="-59.995747"
   ry="13.819288"
   transform="rotate(15)"
   inkscape:export-xdpi="90"
   inkscape:export-ydpi="90" /><rect
   style="fill:#4c5254;fill-opacity:1;stroke-width:7.78972"
   id="rect1032-7-0"
   width="22.736841"
   height="140.63158"
   x="-304.87769"
   y="140.86339"
   ry="13.819288"
   transform="matrix(-0.96592583,0.25881905,0.25881905,0.96592583,0,0)"
   inkscape:export-xdpi="90"
   inkscape:export-ydpi="90" /></svg>
